<svg width="95" height="95" viewBox="0 0 95 95" fill="none" xmlns="http://www.w3.org/2000/svg">
<path d="M94.5167 47.4061C94.5167 73.4209 73.4275 94.5101 47.4126 94.5101C21.3978 94.5101 0.308594 73.4209 0.308594 47.4061C0.308594 21.3912 21.3978 0.302002 47.4126 0.302002C73.4275 0.302002 94.5167 21.3912 94.5167 47.4061ZM5.019 47.4061C5.019 70.8194 23.9993 89.7997 47.4126 89.7997C70.826 89.7997 89.8063 70.8194 89.8063 47.4061C89.8063 23.9927 70.826 5.01241 47.4126 5.01241C23.9993 5.01241 5.019 23.9927 5.019 47.4061Z" fill="#F1F1F1"/>
<path d="M47.5 2.375C47.5 1.06332 48.5642 -0.00619393 49.8742 0.0593449C59.7523 0.553528 69.2525 4.12163 77.0302 10.2949C85.4294 16.9615 91.3257 26.2739 93.7599 36.7172C96.1942 47.1605 95.0231 58.1202 90.4373 67.8135C85.8515 77.5067 78.1207 85.363 68.5026 90.1045C58.8845 94.8459 47.9451 96.1933 37.4639 93.9277C26.9827 91.662 17.5765 85.9165 10.7755 77.6258C3.97455 69.3352 0.178936 58.9872 0.00616561 48.2653C-0.153822 38.3367 2.80151 28.6284 8.42517 20.4924C9.17099 19.4134 10.6674 19.2206 11.7078 20.0194V20.0194C12.7482 20.8182 12.938 22.3058 12.1982 23.3889C7.22426 30.6711 4.61284 39.3325 4.75555 48.1888C4.91104 57.8385 8.3271 67.1516 14.448 74.6132C20.5689 82.0748 29.0344 87.2458 38.4675 89.2849C47.9006 91.324 57.7461 90.1113 66.4024 85.844C75.0586 81.5767 82.0163 74.506 86.1436 65.7821C90.2708 57.0582 91.3248 47.1945 89.1339 37.7955C86.9431 28.3965 81.6364 20.0153 74.0772 14.0154C67.1395 8.50889 58.6791 5.30549 49.874 4.81594C48.5643 4.74312 47.5 3.68668 47.5 2.375V2.375Z" fill="#4EAF4E"/>
<circle cx="12.4935" cy="19.7609" r="6.18981" fill="white" stroke="#4EAF4E" stroke-width="4"/>
</svg>
