<svg width="52" height="53" viewBox="0 0 52 53" fill="none" xmlns="http://www.w3.org/2000/svg">
<path d="M25.8043 0.770996L27.283 18.1893L34.6299 2.32719L30.062 19.2007L42.391 6.80806L32.3275 21.1017L48.1515 13.6732L33.8062 23.6629L51.2166 22.0944L34.3197 26.5753L51.2166 31.0562L33.8062 29.4878L48.1515 39.4775L32.3275 32.0489L42.391 46.3426L30.062 33.9499L34.6299 50.8234L27.283 34.9614L25.8043 52.3796L24.3256 34.9614L16.9787 50.8234L21.5466 33.9499L9.21762 46.3426L19.2811 32.0489L3.45712 39.4775L17.8024 29.4878L0.392025 31.0562L17.2889 26.5753L0.392025 22.0944L17.8024 23.6629L3.45712 13.6732L19.2811 21.1017L9.21762 6.80806L21.5466 19.2007L16.9787 2.32719L24.3256 18.1893L25.8043 0.770996Z" fill="#030211"/>
</svg>
