<svg width="142" height="31" viewBox="0 0 142 31" fill="none" xmlns="http://www.w3.org/2000/svg">
<path d="M14.4943 18.0326H5.62926V14.9576H14.4943V18.0326ZM9.60426 5.67258H10.5343L4.32426 23.2676H0.874258L8.35926 2.26758H11.7643L19.2643 23.2676H15.7993L9.60426 5.67258ZM25.3721 23.5676C24.2721 23.5676 23.3121 23.4526 22.4921 23.2226C21.6721 22.9826 20.9471 22.7076 20.3171 22.3976L20.6471 19.4126C21.2471 19.8026 21.9321 20.1526 22.7021 20.4626C23.4721 20.7626 24.3221 20.9126 25.2521 20.9126C26.0721 20.9126 26.6971 20.7826 27.1271 20.5226C27.5571 20.2526 27.7721 19.8426 27.7721 19.2926C27.7721 18.8626 27.6471 18.5126 27.3971 18.2426C27.1471 17.9626 26.8071 17.7276 26.3771 17.5376C25.9571 17.3376 25.4821 17.1476 24.9521 16.9676C24.1221 16.6876 23.3721 16.3726 22.7021 16.0226C22.0321 15.6626 21.4971 15.2026 21.0971 14.6426C20.7071 14.0826 20.5121 13.3576 20.5121 12.4676C20.5121 11.6476 20.7221 10.9076 21.1421 10.2476C21.5621 9.57758 22.1821 9.04758 23.0021 8.65758C23.8221 8.26758 24.8421 8.07258 26.0621 8.07258C27.0221 8.07258 27.8521 8.17758 28.5521 8.38758C29.2621 8.59758 29.9021 8.85758 30.4721 9.16758L30.1421 12.0926C29.5521 11.6626 28.9371 11.3076 28.2971 11.0276C27.6571 10.7376 26.9321 10.5926 26.1221 10.5926C25.4021 10.5926 24.8321 10.7326 24.4121 11.0126C24.0021 11.2926 23.7971 11.7076 23.7971 12.2576C23.7971 12.8776 24.0571 13.3326 24.5771 13.6226C25.0971 13.9126 25.9071 14.2576 27.0071 14.6576C27.5871 14.8676 28.1271 15.0976 28.6271 15.3476C29.1271 15.5976 29.5671 15.8926 29.9471 16.2326C30.3271 16.5726 30.6221 16.9776 30.8321 17.4476C31.0421 17.9176 31.1471 18.4776 31.1471 19.1276C31.1471 19.9676 30.9471 20.7226 30.5471 21.3926C30.1471 22.0626 29.5221 22.5926 28.6721 22.9826C27.8221 23.3726 26.7221 23.5676 25.3721 23.5676ZM33.7097 23.2676V0.767576H37.0547V14.7026L41.9897 8.37258H45.8597L40.2497 15.4526L45.9947 23.2676H42.1097L37.0547 16.3076V23.2676H33.7097ZM48.3136 23.2676V2.26758H61.5286V5.56758H51.8536V10.6526H59.4286V13.9526H51.8536V19.9676H61.8136V23.2676H48.3136ZM63.1929 23.2676L68.2179 15.8276L63.2379 8.37258H67.1529L70.2429 13.2626L73.0779 8.37258H77.0529L72.1179 15.7526L77.1129 23.2676H73.1829L70.0929 18.3926L67.1229 23.2676H63.1929ZM79.2085 30.5276V8.37258H81.8785L82.5235 11.1776L81.5335 10.7426C82.2035 9.94258 82.9585 9.30758 83.7985 8.83758C84.6485 8.35758 85.6835 8.11758 86.9035 8.11758C88.3335 8.11758 89.5385 8.46758 90.5185 9.16758C91.5085 9.86758 92.2585 10.8026 92.7685 11.9726C93.2785 13.1426 93.5335 14.4326 93.5335 15.8426C93.5335 17.2526 93.2835 18.5426 92.7835 19.7126C92.2835 20.8826 91.5435 21.8176 90.5635 22.5176C89.5835 23.2176 88.3635 23.5676 86.9035 23.5676C85.7335 23.5676 84.7435 23.3776 83.9335 22.9976C83.1335 22.6176 82.4185 22.0276 81.7885 21.2276L82.5535 20.5526V30.5276H79.2085ZM86.3635 20.7476C87.5435 20.7476 88.4635 20.3026 89.1235 19.4126C89.7835 18.5126 90.1135 17.3226 90.1135 15.8426C90.1135 14.3526 89.7835 13.1626 89.1235 12.2726C88.4635 11.3826 87.5435 10.9376 86.3635 10.9376C85.5235 10.9376 84.8035 11.1376 84.2035 11.5376C83.6135 11.9276 83.1635 12.4876 82.8535 13.2176C82.5435 13.9476 82.3885 14.8226 82.3885 15.8426C82.3885 16.8826 82.5435 17.7676 82.8535 18.4976C83.1635 19.2276 83.6135 19.7876 84.2035 20.1776C84.8035 20.5576 85.5235 20.7476 86.3635 20.7476ZM103.371 23.5676C101.591 23.5676 100.101 23.2076 98.9007 22.4876C97.7107 21.7676 96.8107 20.8176 96.2007 19.6376C95.6007 18.4476 95.3007 17.1426 95.3007 15.7226C95.3007 14.3526 95.5807 13.0926 96.1407 11.9426C96.7107 10.7826 97.5357 9.85758 98.6157 9.16758C99.7057 8.46758 101.026 8.11758 102.576 8.11758C103.936 8.11758 105.096 8.39258 106.056 8.94258C107.016 9.49258 107.746 10.2526 108.246 11.2226C108.756 12.1826 109.011 13.2826 109.011 14.5226C109.011 14.8026 108.991 15.0976 108.951 15.4076C108.921 15.7076 108.876 16.0176 108.816 16.3376H98.7657C98.9057 17.4276 99.2107 18.2926 99.6807 18.9326C100.151 19.5726 100.736 20.0376 101.436 20.3276C102.136 20.6076 102.891 20.7476 103.701 20.7476C104.501 20.7476 105.271 20.6526 106.011 20.4626C106.761 20.2626 107.456 19.9926 108.096 19.6526L108.351 22.4276C107.781 22.7076 107.076 22.9676 106.236 23.2076C105.396 23.4476 104.441 23.5676 103.371 23.5676ZM98.9157 14.0576H105.591C105.591 13.5176 105.486 13.0126 105.276 12.5426C105.076 12.0626 104.751 11.6776 104.301 11.3876C103.861 11.0876 103.281 10.9376 102.561 10.9376C101.511 10.9376 100.691 11.2226 100.101 11.7926C99.5207 12.3626 99.1257 13.1176 98.9157 14.0576ZM111.611 23.2676V8.37258H114.641L114.806 10.2776C115.326 9.66758 115.931 9.14758 116.621 8.71758C117.311 8.28758 118.056 8.07258 118.856 8.07258C119.096 8.07258 119.321 8.09758 119.531 8.14758L119.261 11.5526C119.071 11.5026 118.881 11.4726 118.691 11.4626C118.501 11.4426 118.306 11.4326 118.106 11.4326C117.426 11.4326 116.801 11.5876 116.231 11.8976C115.661 12.2076 115.261 12.5676 115.031 12.9776V23.2676H111.611ZM126.332 23.5676C125.392 23.5676 124.632 23.3826 124.052 23.0126C123.472 22.6426 123.047 22.1726 122.777 21.6026C122.507 21.0226 122.372 20.4176 122.372 19.7876V11.0876H120.092L120.392 8.37258H122.372V4.95258L125.717 4.60758V8.37258H129.227V11.0876H125.717V18.2126C125.717 19.0426 125.767 19.6426 125.867 20.0126C125.967 20.3726 126.197 20.6026 126.557 20.7026C126.917 20.7926 127.497 20.8376 128.297 20.8376H129.197L128.912 23.5676H126.332ZM135.851 23.5676C134.751 23.5676 133.791 23.4526 132.971 23.2226C132.151 22.9826 131.426 22.7076 130.796 22.3976L131.126 19.4126C131.726 19.8026 132.411 20.1526 133.181 20.4626C133.951 20.7626 134.801 20.9126 135.731 20.9126C136.551 20.9126 137.176 20.7826 137.606 20.5226C138.036 20.2526 138.251 19.8426 138.251 19.2926C138.251 18.8626 138.126 18.5126 137.876 18.2426C137.626 17.9626 137.286 17.7276 136.856 17.5376C136.436 17.3376 135.961 17.1476 135.431 16.9676C134.601 16.6876 133.851 16.3726 133.181 16.0226C132.511 15.6626 131.976 15.2026 131.576 14.6426C131.186 14.0826 130.991 13.3576 130.991 12.4676C130.991 11.6476 131.201 10.9076 131.621 10.2476C132.041 9.57758 132.661 9.04758 133.481 8.65758C134.301 8.26758 135.321 8.07258 136.541 8.07258C137.501 8.07258 138.331 8.17758 139.031 8.38758C139.741 8.59758 140.381 8.85758 140.951 9.16758L140.621 12.0926C140.031 11.6626 139.416 11.3076 138.776 11.0276C138.136 10.7376 137.411 10.5926 136.601 10.5926C135.881 10.5926 135.311 10.7326 134.891 11.0126C134.481 11.2926 134.276 11.7076 134.276 12.2576C134.276 12.8776 134.536 13.3326 135.056 13.6226C135.576 13.9126 136.386 14.2576 137.486 14.6576C138.066 14.8676 138.606 15.0976 139.106 15.3476C139.606 15.5976 140.046 15.8926 140.426 16.2326C140.806 16.5726 141.101 16.9776 141.311 17.4476C141.521 17.9176 141.626 18.4776 141.626 19.1276C141.626 19.9676 141.426 20.7226 141.026 21.3926C140.626 22.0626 140.001 22.5926 139.151 22.9826C138.301 23.3726 137.201 23.5676 135.851 23.5676Z" fill="white"/>
</svg>
