<svg width="21" height="20" viewBox="0 0 21 20" fill="none" xmlns="http://www.w3.org/2000/svg">
<rect width="21" height="20" fill="#F5F5F5"/>
<g id="HomePage" clip-path="url(#clip0_1_5)">
<rect width="1920" height="9246" transform="translate(-1450 -18)" fill="white"/>
<g id="Topbar">
<rect width="1919.72" height="58" transform="translate(-1450 -18)" fill="#181818"/>
<g id="Follow">
<g id="Facebook">
<path id="Icon" fill-rule="evenodd" clip-rule="evenodd" d="M20.7902 9.70146C20.7902 4.344 16.1525 0 10.4327 0C4.71296 0 0.0751953 4.344 0.0751953 9.70146C0.0751953 14.5435 3.86216 18.5571 8.81435 19.2856V12.5067H6.18382V9.70146H8.81435V7.56411C8.81435 5.13311 10.361 3.7892 12.7266 3.7892C13.8599 3.7892 15.0455 3.9789 15.0455 3.9789V6.36658H13.7388C12.4529 6.36658 12.0506 7.11412 12.0506 7.88244V9.70146H14.923L14.4643 12.5067H12.0511V19.2864C17.0033 18.5584 20.7902 14.5448 20.7902 9.70146Z" fill="white"/>
</g>
</g>
</g>
</g>
<defs>
<clipPath id="clip0_1_5">
<rect width="1920" height="9246" fill="white" transform="translate(-1450 -18)"/>
</clipPath>
</defs>
</svg>
